<svg xmlns="http://www.w3.org/2000/svg" version="1.1" xmlns:xlink="http://www.w3.org/1999/xlink" xmlns:svgjs="http://svgjs.dev/svgjs" width="100%" height="100%" viewBox="0 0 1000 600"><rect width="1000" height="600" x="0" y="0" fill="#262223"/><g><circle r="166.66666666666666" cx="435.49296061197913" cy="455.466237067743" fill="#ddc6b6" transform="matrix(0.4689071156421515,0,0,0.46890711564215143,-0.5600506066757567,86.42865099299965)"/><path d="M306.91935589872986 526.5180763926302L285.0525809777657 526.5180763926302L343.6373154535155 389.4255458464743L375.5567327339785 389.4255458464743L434.83998918637025 526.5180763926302L410.5435726075211 526.5180763926302L356.3321931159642 390.0936973023926L361.1307353902869 390.0936973023926L306.91935589872986 526.5180763926302ZM338.8387731791928 530.4662440866932L267.7717546860593 530.4662440866932L267.7717546860593 512.0920790489386L338.8387731791928 512.0920790489386L338.8387731791928 530.4662440866932ZM399.18499785690926 477.3178328204608L318.94608210526013 477.3178328204608L323.9572180246478 460.91775162973767L394.3864555825865 460.91775162973767L399.18499785690926 477.3178328204608ZM452.09044495735304 530.4662440866932L380.59823917408966 530.4662440866932L380.59823917408966 512.0920790489386L452.09044495735304 512.0920790489386L452.09044495735304 530.4662440866932ZM401.7968626391355 398.5974431049898L317.3971855483585 398.5974431049898L317.3971855483585 380.46624223302365L401.7968626391355 380.46624223302365L401.7968626391355 398.5974431049898ZM470.0394227049778 429.879079450258L449.6911738201917 429.879079450258L449.6911738201917 380.46624223302365L603.2141560777943 380.46624223302365L603.2141560777943 429.879079450258L583.0785008380731 429.879079450258L583.0785008380731 398.5974431049898L470.0394227049778 398.5974431049898L470.0394227049778 429.879079450258ZM566.2532323572202 530.4662440866932L486.6520975407659 530.4662440866932L486.6520975407659 512.0920790489386L566.2532323572202 512.0920790489386L566.2532323572202 530.4662440866932ZM537.8264249599667 518.8647051702927L515.0789049380194 518.8647051702927L515.0789049380194 390.5188845925225L537.8264249599667 390.5188845925225L537.8264249599667 518.8647051702927Z " fill="#262223" transform="matrix(0.4689071156421515,0,0,0.46890711564215143,-0.5600506066757567,86.42865099299965)"/><path d="M714.8729772220281 491.7183184262735L698.4620987102435 491.7183184262735L742.4295773897334 388.8312273121119L766.3849014395748 388.8312273121119L810.8766165159691 491.7183184262735L792.6423070584303 491.7183184262735L751.9570040812973 389.3326708221942L755.5582801991612 389.3326708221942L714.8729772220281 491.7183184262735ZM738.8283012718696 494.68139371312355L685.4929461085691 494.68139371312355L685.4929461085691 480.89169718586L738.8283012718696 480.89169718586L738.8283012718696 494.68139371312355ZM784.1177673870311 454.7938417747578L723.8989604035098 454.7938417747578L727.6597867291271 442.48568289091924L780.5164912691671 442.48568289091924L784.1177673870311 454.7938417747578ZM823.8229762308215 494.68139371312355L770.168520652014 494.68139371312355L770.168520652014 480.89169718586L823.8229762308215 480.89169718586L823.8229762308215 494.68139371312355ZM786.0779556537166 395.7146791323327L722.7365231755916 395.7146791323327L722.7365231755916 382.10732569964455L786.0779556537166 382.10732569964455L786.0779556537166 395.7146791323327ZM884.2241263089181 496.9834752821378L884.2241263089181 496.9834752821378Q875.5172435429433 496.9834752821378 869.0440636855171 493.7696782402466Q862.5708838280909 490.57867408517734 857.5564487272679 485.8149607393954Q852.5420136264447 481.05124739361344 848.7811873008275 476.6294273501603L848.7811873008275 476.6294273501603L848.7811873008275 464.9822621841575Q852.5420136264447 469.5636324353641 857.5564487272679 473.75752361059796Q862.5708838280909 477.95141478583184 868.3830699676814 480.572596770353Q874.2180489940938 483.19377875487424 880.6228501910541 483.19377875487424L880.6228501910541 483.19377875487424Q886.5262078779324 483.19377875487424 891.4494714314678 481.1424189409011Q896.3727349850033 479.09105912692803 899.974011102867 475.3074399144888Q903.598080107553 471.5466135888714 905.5582683742382 466.46379982758253Q907.5184566409237 461.3581931794717 907.5184566409237 455.1357350770867L907.5184566409237 455.1357350770867Q907.5184566409237 447.2493962367012 904.4870026936078 441.3460385498231Q901.4555487462922 435.442680862945 896.0308416826742 432.2288838210538Q890.6289275058784 429.0378796659845 883.5631325910822 429.197429873738L883.5631325910822 429.197429873738Q877.1583313941219 429.197429873738 870.7763230839832 432.9810490861773Q864.3715218870229 436.7418754117946 858.8784361629394 443.23784815604273Q853.3625575520339 449.71102801346893 849.2598379240878 458.25836057169016L849.2598379240878 458.25836057169016L849.2598379240878 445.76785859327623Q853.2030073442804 436.92421850637 859.3570867861997 430.1091453466149Q865.511166228119 423.29407218685986 873.0556117661756 419.35090276666716Q880.6228501910541 415.4077333464744 888.4863961446176 415.4077333464744L888.4863961446176 415.4077333464744Q898.173373043935 415.4077333464744 906.2876407525398 420.42216844729757Q914.4247013479664 425.4366035481207 919.4163435619676 434.3714151823146Q924.4307786627908 443.3062268165085 924.4307786627908 455.29528528484013L924.4307786627908 455.29528528484013Q924.4307786627908 464.48081867407524 921.3081531681873 472.1164357594195Q918.1855276735837 479.7520528447638 912.6924419495003 485.2451385688473Q907.1993562254168 490.73822429293085 899.974011102867 493.8608497875343Q892.7486659803174 496.9834752821378 884.2241263089181 496.9834752821378ZM875.1981431274364 530.4662260235431L824.3244197409037 530.4662260235431L824.3244197409037 517.4970734218687L875.1981431274364 517.4970734218687L875.1981431274364 530.4662260235431ZM857.4652771799801 527.0017072266107L841.5558421782778 527.0017072266107L841.5558421782778 417.39071449998175L857.4652771799801 417.39071449998175L857.4652771799801 527.0017072266107ZM856.8270763489663 430.3598671016561L824.3244197409037 430.3598671016561L824.3244197409037 417.39071449998175L856.8270763489663 417.39071449998175L856.8270763489663 430.3598671016561ZM1032.9021270483236 494.68139371312355L1016.8331418388677 494.68139371312355L1016.8331418388677 449.71102801346893Q1016.8331418388677 445.2892079700158 1015.6707046109495 441.7563105126177Q1014.5310602698535 438.2234130552196 1012.3201502481268 435.6934026179861Q1010.0864473395784 433.14059929393073 1006.8954431845091 431.8186118582592Q1003.70443902944 430.51941730940956 999.4193763069184 430.51941730940956L999.4193763069184 430.51941730940956Q994.9975562634652 430.51941730940956 990.4845646727244 432.2288838210538Q985.9715730819835 433.96114321951995 981.367409943955 437.3344904691646Q976.7860396927485 440.68504483198734 972.2730481020078 445.3575866304816Q967.7600565112668 450.0529213157978 963.1558933732383 455.9562790026759L963.1558933732383 455.9562790026759L963.1558933732383 442.8275761932481Q968.4210502291028 436.42277499628767 973.4126924431039 431.3399612349988Q978.4271275439269 426.2571474737099 983.4187697579282 422.6330784690241Q988.4332048587512 419.0318023511602 993.7667403750813 417.2311642922283Q999.1002758914115 415.4077333464744 1005.0036335782895 415.4077333464744L1005.0036335782895 415.4077333464744Q1011.727535190757 415.4077333464744 1016.9015204993334 417.4590931604475Q1022.0755058079101 419.5104529744206 1025.6084032653082 423.7955156969422Q1029.1413007227063 428.05778553264184 1031.010317442104 434.3714151823146Q1032.9021270483236 440.68504483198734 1032.9021270483236 449.23237739020857L1032.9021270483236 449.23237739020857L1032.9021270483236 494.68139371312355ZM983.5099413052158 494.68139371312355L935.7588434132865 494.68139371312355L935.7588434132865 481.7122411114492L983.5099413052158 481.7122411114492L983.5099413052158 494.68139371312355ZM969.4011443624454 494.68139371312355L953.149816058414 494.68139371312355L953.149816058414 417.39071449998175L969.4011443624454 417.39071449998175L969.4011443624454 494.68139371312355ZM965.9594184523348 430.3598671016561L935.7588434132865 430.3598671016561L935.7588434132865 417.39071449998175L965.9594184523348 417.39071449998175L965.9594184523348 430.3598671016561ZM1048.1733612190121 494.68139371312355L1002.5420018015218 494.68139371312355L1002.5420018015218 481.7122411114492L1048.1733612190121 481.7122411114492L1048.1733612190121 494.68139371312355ZM1133.8290298957997 496.0033811487951L1133.8290298957997 496.0033811487951Q1129.0653165500178 496.0033811487951 1125.3044902244005 493.61012803249315Q1121.5208710119612 491.2396678030131 1119.3099609902347 486.63550466498464Q1117.0990509685082 482.05413441377806 1117.0990509685082 475.64933321681764L1117.0990509685082 475.64933321681764L1117.0990509685082 445.2892079700158Q1117.0990509685082 439.3858502831377 1114.2955258894115 435.8529528257396Q1111.5147936971368 432.32005536834146 1107.001802106396 430.678967517163Q1102.4888105156554 429.0378796659845 1096.904553244284 429.0378796659845L1096.904553244284 429.0378796659845Q1089.519657913981 429.0378796659845 1081.8156621681708 430.9980679326699Q1074.0888735355388 432.9810490861773 1066.2253275819753 436.2632247885342L1066.2253275819753 436.2632247885342L1062.783601671865 423.6131726023668Q1071.627241758771 419.8523462767495 1080.8355680348282 417.6414362550229Q1090.0211014240633 415.4077333464744 1098.8875343977913 415.4077333464744L1098.8875343977913 415.4077333464744Q1109.372262335876 415.4077333464744 1116.9395007607548 418.87225214340674Q1124.4839462988111 422.31397805351713 1128.4954943794698 429.0378796659845Q1132.5298353469502 435.7617812784519 1132.5298353469502 445.9502016878516L1132.5298353469502 445.9502016878516L1132.5298353469502 474.32734578114605Q1132.5298353469502 478.5896156168457 1133.9885801035532 480.48142522306534Q1135.4701177469783 482.37323482928497 1138.0912997314995 482.37323482928497L1138.0912997314995 482.37323482928497Q1139.5728373749243 482.37323482928497 1140.894824810596 481.87179131920266Q1142.1940193594455 481.3931406959423 1143.1969063796103 481.05124739361344L1143.1969063796103 481.05124739361344L1146.6386322897208 492.72120544643815Q1144.8379942307888 493.8608497875343 1141.4646469811441 494.9321154681647Q1138.0912997314995 496.0033811487951 1133.8290298957997 496.0033811487951ZM1085.2573880782813 496.9834752821378L1085.2573880782813 496.9834752821378Q1078.0320429557316 496.9834752821378 1071.8095848533467 494.17995020304124Q1065.5643338641396 491.39921801076656 1061.871886198988 485.9061322866831Q1058.1794385338364 480.41304656259956 1058.1794385338364 472.36715751446064L1058.1794385338364 472.36715751446064Q1058.1794385338364 464.16171825856827 1062.8519803323306 458.4862894399094Q1067.524522130825 452.8336535080724 1074.9094174611282 449.96174976851006Q1082.2943127914314 447.08984602894776 1090.682095141899 447.08984602894776L1090.682095141899 447.08984602894776Q1100.3462791543946 447.08984602894776 1107.5716242769442 449.3007560506743Q1114.796969399494 451.5116660724009 1122.500965145304 454.7938417747578L1122.500965145304 454.7938417747578L1122.500965145304 465.30136259966446Q1113.816875266151 461.5405362740471 1106.6827016908892 460.30972038566324Q1099.5257352288052 459.0789044972794 1093.4628273341737 459.0789044972794L1093.4628273341737 459.0789044972794Q1088.3800135728848 458.896561402704 1084.0265721898975 460.378099046129Q1079.6731308069102 461.85963668955407 1076.8923986146353 464.6403688818287Q1074.0888735355388 467.4438939609252 1074.0888735355388 471.86571400437833L1074.0888735355388 471.86571400437833Q1074.0888735355388 475.64933321681764 1076.2314048967996 478.2705152013388Q1078.3739362580604 480.89169718586 1081.8840408286367 482.12251307424384Q1085.4169382860348 483.3533289626277 1089.3601077062274 483.3533289626277L1089.3601077062274 483.3533289626277Q1093.622377541927 483.3533289626277 1099.0470846055448 481.6438624509834Q1104.4489987823406 479.91160305251725 1110.4435280165064 476.3103269346534Q1116.4380572506723 472.68625792996755 1122.500965145304 467.28434375317175L1122.500965145304 467.28434375317175L1122.181864729797 478.43006540909226Q1116.5976074584257 484.01432268046347 1110.4435280165064 488.20821385569735Q1104.2894485745874 492.3793121441093 1097.9758189249144 494.68139371312355Q1091.6621892752419 496.9834752821378 1085.2573880782813 496.9834752821378ZM1160.9069794402446 419.1913525589137L1145.658538156378 419.1913525589137L1145.658538156378 382.10732569964455L1260.8537881543782 382.10732569964455L1260.8537881543782 419.1913525589137L1245.764897078265 419.1913525589137L1245.764897078265 395.7146791323327L1160.9069794402446 395.7146791323327L1160.9069794402446 419.1913525589137ZM1233.1148448920976 494.68139371312355L1173.3746885318367 494.68139371312355L1173.3746885318367 480.89169718586L1233.1148448920976 480.89169718586L1233.1148448920976 494.68139371312355ZM1211.7807028267773 485.9745109471489L1194.708830597157 485.9745109471489L1194.708830597157 389.65177123770115L1211.7807028267773 389.65177123770115L1211.7807028267773 485.9745109471489ZM1367.524498480979 494.68139371312355L1351.2731701769478 494.68139371312355L1351.2731701769478 449.71102801346893Q1351.2731701769478 444.94731466768695 1350.2019044963174 441.2548670025354Q1349.153431702509 437.5624193373838 1346.9197287939605 435.03240890015036Q1344.7088187722338 432.4796055760949 1341.426643069877 431.1804110272453Q1338.1444673675198 429.85842359157374 1333.8821975318203 429.85842359157374L1333.8821975318203 429.85842359157374Q1329.4603774883672 429.85842359157374 1324.9473858976264 431.7502331977934Q1320.4343943068857 433.64204280401304 1315.921402716145 436.99259716683576Q1311.408411125404 440.3659444164804 1306.8954195346632 445.19803642272814Q1302.3824279439225 450.0529213157978 1297.778264805894 455.9562790026759L1297.778264805894 455.9562790026759L1297.778264805894 442.8275761932481Q1303.0206287749363 436.42277499628767 1308.0350638757593 431.3399612349988Q1313.0494989765825 426.2571474737099 1318.1323127378714 422.6330784690241Q1323.21512649916 419.0318023511602 1328.639833562778 417.2311642922283Q1334.0417477395738 415.4077333464744 1340.2869987287806 415.4077333464744L1340.2869987287806 415.4077333464744Q1346.8513501334946 415.4077333464744 1351.9341638947835 417.4590931604475Q1357.0169776560726 419.5104529744206 1360.4587035661827 423.7955156969422Q1363.9232223631154 428.05778553264184 1365.7238604220472 434.3714151823146Q1367.524498480979 440.68504483198734 1367.524498480979 449.23237739020857L1367.524498480979 449.23237739020857L1367.524498480979 494.68139371312355ZM1318.4514131533783 494.68139371312355L1270.8598654692025 494.68139371312355L1270.8598654692025 481.7122411114492L1318.4514131533783 481.7122411114492L1318.4514131533783 494.68139371312355ZM1382.7957326516678 494.68139371312355L1337.1643732341772 494.68139371312355L1337.1643732341772 481.7122411114492L1382.7957326516678 481.7122411114492L1382.7957326516678 494.68139371312355ZM1270.8598654692025 382.10732569964455L1304.3426162106077 382.10732569964455L1304.3426162106077 494.68139371312355L1288.25083811433 494.68139371312355L1288.25083811433 395.07647830131884L1270.8598654692025 395.07647830131884L1270.8598654692025 382.10732569964455ZM1423.1619352132936 491.08011759525965L1406.9106069092625 491.08011759525965L1406.9106069092625 417.39071449998175L1423.1619352132936 417.39071449998175L1423.1619352132936 491.08011759525965ZM1440.7124580661746 494.68139371312355L1389.519634264135 494.68139371312355L1389.519634264135 481.7122411114492L1440.7124580661746 481.7122411114492L1440.7124580661746 494.68139371312355ZM1419.3783160008545 430.3598671016561L1389.519634264135 430.3598671016561L1389.519634264135 417.39071449998175L1419.3783160008545 417.39071449998175L1419.3783160008545 430.3598671016561ZM1412.9735148038942 400.47839247811464L1412.9735148038942 400.47839247811464Q1407.8907010426053 400.47839247811464 1404.1982533774537 397.69766028584Q1400.5058057123022 394.8941352067435 1400.5058057123022 390.7914155787973L1400.5058057123022 390.7914155787973Q1400.5058057123022 386.2100453275907 1404.1982533774537 383.3381415880284Q1407.8907010426053 380.46623784846605 1412.9735148038942 380.46623784846605L1412.9735148038942 380.46623784846605Q1418.7173222830188 380.46623784846605 1422.3413912877045 383.3381415880284Q1425.9426674055683 386.2100453275907 1425.9426674055683 390.7914155787973L1425.9426674055683 390.7914155787973Q1425.9426674055683 394.8941352067435 1422.3413912877045 397.69766028584Q1418.7173222830188 400.47839247811464 1412.9735148038942 400.47839247811464ZM1507.9970599644923 466.28145673300713L1507.9970599644923 466.28145673300713Q1501.7746018621071 466.28145673300713 1496.190344590736 465.141812391911Q1490.6060873193649 464.0021680508148 1485.4321020107882 462.178737105061Q1480.2581167022115 460.378099046129 1475.334853148676 458.4179107794436L1475.334853148676 458.4179107794436L1475.334853148676 447.910389954537Q1481.0786606278007 450.21247152355124 1486.2526459363773 451.6940091669763Q1491.426631244954 453.1527539235793 1496.0307943829823 453.74536898094937Q1500.6121646341892 454.31519115149746 1504.5553340543818 454.31519115149746L1504.5553340543818 454.31519115149746Q1509.9800411179995 454.155640943744 1514.561411369206 452.67410330031896Q1519.1655745072346 451.1925656568939 1522.0374782467968 448.16111170957817Q1524.9093819863592 445.12965776226235 1524.9093819863592 440.68504483198734L1524.9093819863592 440.68504483198734Q1524.9093819863592 435.10078756061614 1520.8750410188788 432.00095495283455Q1516.8634929382204 428.87832945823106 1509.7976980234241 428.87832945823106L1509.7976980234241 428.87832945823106Q1505.0567775644643 428.87832945823106 1499.2217985380519 430.92968927220414Q1493.3868195116395 432.9810490861773 1487.3239116170078 436.6734967513288Q1481.2610037223762 440.3659444164804 1475.334853148676 445.6083083855228L1475.334853148676 445.6083083855228L1475.676746451005 434.46258672960226Q1481.2610037223762 428.87832945823106 1487.4150831642955 424.6160596225314Q1493.5691626062146 420.33099690000984 1500.2930642186823 417.8693651232421Q1507.0169658311495 415.4077333464744 1513.9004176513704 415.4077333464744L1513.9004176513704 415.4077333464744Q1521.2853129816735 415.4077333464744 1527.690114178634 418.211258425571Q1534.0949153755944 420.9919906178456 1537.9469132484994 426.48507634192913Q1541.7989111214044 432.00095495283455 1541.639360913651 440.2063942087269L1541.639360913651 440.2063942087269Q1541.639360913651 446.428852311112 1538.699078513623 451.28373720418165Q1535.7360032267727 456.11582921042935 1530.9722898809907 459.489176460074Q1526.2085765352087 462.83973082289674 1520.236840187865 464.5719902213629Q1514.2423109536992 466.28145673300713 1507.9970599644923 466.28145673300713ZM1496.0307943829823 494.68139371312355L1446.7981588476282 494.68139371312355L1446.7981588476282 481.7122411114492L1496.0307943829823 481.7122411114492L1496.0307943829823 494.68139371312355ZM1479.6199158711977 491.08011759525965L1464.0295812850025 491.08011759525965L1464.0295812850025 382.10732569964455L1479.6199158711977 382.10732569964455L1479.6199158711977 491.08011759525965ZM1478.6170288510332 395.07647830131884L1446.7981588476282 395.07647830131884L1446.7981588476282 382.10732569964455L1478.6170288510332 382.10732569964455L1478.6170288510332 395.07647830131884ZM1536.2374467368552 496.9834752821378L1536.2374467368552 496.9834752821378Q1528.510658104223 496.9834752821378 1522.5161288700572 492.8807556541916Q1516.5443925227135 488.7780360262454 1512.7607733102743 481.05124739361344Q1508.9771540978347 473.3472516478034 1507.8375097567389 462.3610801996363L1507.8375097567389 462.3610801996363L1519.4846749227415 462.3610801996363Q1520.9662125661664 469.5636324353641 1523.519015890222 474.2589671206803Q1526.0490263274553 478.9315089191746 1529.5819237848534 481.2335904881888Q1533.1148212422515 483.51287917038115 1537.3770910779513 483.6952222649565L1537.3770910779513 483.6952222649565Q1540.4997165725547 483.6952222649565 1543.2120701043636 483.03422854712073Q1545.9016307493505 482.37323482928497 1548.3632625261182 481.05124739361344L1548.3632625261182 481.05124739361344L1551.8277813230504 492.72120544643815Q1548.7051558284472 494.68139371312355 1544.6708148609666 495.8210380542197Q1540.6592667803081 496.9834752821378 1536.2374467368552 496.9834752821378ZM1636.6629060742491 496.0033811487951L1636.6629060742491 496.0033811487951Q1631.8991927284671 496.0033811487951 1628.1383664028497 493.61012803249315Q1624.3547471904105 491.2396678030131 1622.1438371686838 486.63550466498464Q1619.9329271469574 482.05413441377806 1619.9329271469574 475.64933321681764L1619.9329271469574 475.64933321681764L1619.9329271469574 445.2892079700158Q1619.9329271469574 439.3858502831377 1617.1294020678608 435.8529528257396Q1614.3486698755862 432.32005536834146 1609.8356782848452 430.678967517163Q1605.3226866941047 429.0378796659845 1599.7384294227334 429.0378796659845L1599.7384294227334 429.0378796659845Q1592.3535340924302 429.0378796659845 1584.6495383466201 430.9980679326699Q1576.9227497139882 432.9810490861773 1569.0592037604247 436.2632247885342L1569.0592037604247 436.2632247885342L1565.5946849634922 423.6131726023668Q1574.4611179372205 419.8523462767495 1583.6466513264554 417.6414362550229Q1592.8549776025127 415.4077333464744 1601.6986176894186 415.4077333464744L1601.6986176894186 415.4077333464744Q1612.2061385143254 415.4077333464744 1619.750584052382 418.87225214340674Q1627.3178224772605 422.31397805351713 1631.329370557919 429.0378796659845Q1635.3409186385775 435.7617812784519 1635.3409186385775 445.9502016878516L1635.3409186385775 445.9502016878516L1635.3409186385775 474.32734578114605Q1635.3409186385775 478.5896156168457 1636.8224562820026 480.48142522306534Q1638.3039939254274 482.37323482928497 1640.9251759099486 482.37323482928497L1640.9251759099486 482.37323482928497Q1642.4067135533737 482.37323482928497 1643.7287009890454 481.87179131920266Q1645.0278955378947 481.3931406959423 1646.0079896712375 481.05124739361344L1646.0079896712375 481.05124739361344L1649.4725084681702 492.72120544643815Q1647.649077522416 493.8608497875343 1644.2985231595933 494.9321154681647Q1640.9251759099486 496.0033811487951 1636.6629060742491 496.0033811487951ZM1588.0912642567307 496.9834752821378L1588.0912642567307 496.9834752821378Q1580.865919134181 496.9834752821378 1574.6206681449737 494.17995020304124Q1568.398210042589 491.39921801076656 1564.7057623774372 485.9061322866831Q1561.0133147122858 480.41304656259956 1561.0133147122858 472.36715751446064L1561.0133147122858 472.36715751446064Q1561.0133147122858 464.16171825856827 1565.6858565107798 458.4862894399094Q1570.3583983092742 452.8336535080724 1577.7432936395774 449.96174976851006Q1585.1281889698805 447.08984602894776 1593.4931784335265 447.08984602894776L1593.4931784335265 447.08984602894776Q1603.180155332844 447.08984602894776 1610.4055004553934 449.3007560506743Q1617.630845577943 451.5116660724009 1625.3348413237532 454.7938417747578L1625.3348413237532 454.7938417747578L1625.3348413237532 465.30136259966446Q1616.6507514446005 461.5405362740471 1609.4937849825167 460.30972038566324Q1602.3596114072545 459.0789044972794 1596.2967035126228 459.0789044972794L1596.2967035126228 459.0789044972794Q1591.2138897513341 458.896561402704 1586.8604483683469 460.378099046129Q1582.5070069853593 461.85963668955407 1579.7262747930847 464.6403688818287Q1576.9227497139882 467.4438939609252 1576.9227497139882 471.86571400437833L1576.9227497139882 471.86571400437833Q1576.9227497139882 475.64933321681764 1579.065281075249 478.2705152013388Q1581.185019549688 480.89169718586 1584.717917007086 482.12251307424384Q1588.2508144644842 483.3533289626277 1592.1939838846768 483.3533289626277L1592.1939838846768 483.3533289626277Q1596.4562537203763 483.3533289626277 1601.8809607839942 481.6438624509834Q1607.28287496079 479.91160305251725 1613.2774041949558 476.3103269346534Q1619.2719334291216 472.68625792996755 1625.3348413237532 467.28434375317175L1625.3348413237532 467.28434375317175L1625.0157409082462 478.43006540909226Q1619.431483636875 484.01432268046347 1613.2774041949558 488.20821385569735Q1607.1233247530365 492.3793121441093 1600.8096951033638 494.68139371312355Q1594.496065453691 496.9834752821378 1588.0912642567307 496.9834752821378ZM1753.4992439234277 494.68139371312355L1737.430258713972 494.68139371312355L1737.430258713972 449.71102801346893Q1737.430258713972 445.2892079700158 1736.2678214860537 441.7563105126177Q1735.1281771449578 438.2234130552196 1732.917267123231 435.6934026179861Q1730.7063571015044 433.14059929393073 1727.4925600596132 431.8186118582592Q1724.301555904544 430.51941730940956 1720.0392860688446 430.51941730940956L1720.0392860688446 430.51941730940956Q1715.5946731385695 430.51941730940956 1711.0816815478286 432.2288838210538Q1706.5686899570876 433.96114321951995 1701.9873197058812 437.3344904691646Q1697.3831565678527 440.68504483198734 1692.8701649771117 445.3575866304816Q1688.357173386371 450.0529213157978 1683.7530102483427 455.9562790026759L1683.7530102483427 455.9562790026759L1683.7530102483427 442.8275761932481Q1689.0181671042067 436.42277499628767 1694.009809318208 431.3399612349988Q1699.024244419031 426.2571474737099 1704.0386795198544 422.6330784690241Q1709.0303217338553 419.0318023511602 1714.3638572501857 417.2311642922283Q1719.6973927665156 415.4077333464744 1725.6007504533939 415.4077333464744L1725.6007504533939 415.4077333464744Q1732.3474449526832 415.4077333464744 1737.4986373744375 417.4590931604475Q1742.672622683014 419.5104529744206 1746.205520140412 423.7955156969422Q1749.7384175978102 428.05778553264184 1751.63022720403 434.3714151823146Q1753.4992439234277 440.68504483198734 1753.4992439234277 449.23237739020857L1753.4992439234277 449.23237739020857L1753.4992439234277 494.68139371312355ZM1704.1070581803199 494.68139371312355L1656.3559602883909 494.68139371312355L1656.3559602883909 481.7122411114492L1704.1070581803199 481.7122411114492L1704.1070581803199 494.68139371312355ZM1689.9982612375495 494.68139371312355L1673.7469329335183 494.68139371312355L1673.7469329335183 417.39071449998175L1689.9982612375495 417.39071449998175L1689.9982612375495 494.68139371312355ZM1686.5565353274392 430.3598671016561L1656.3559602883909 430.3598671016561L1656.3559602883909 417.39071449998175L1686.5565353274392 417.39071449998175L1686.5565353274392 430.3598671016561ZM1768.7704780941165 494.68139371312355L1723.1391186766261 494.68139371312355L1723.1391186766261 481.7122411114492L1768.7704780941165 481.7122411114492L1768.7704780941165 494.68139371312355ZM1854.426146770904 496.0033811487951L1854.426146770904 496.0033811487951Q1849.6852263119438 496.0033811487951 1845.9016070995046 493.61012803249315Q1842.1179878870655 491.2396678030131 1839.9070778653388 486.63550466498464Q1837.696167843612 482.05413441377806 1837.696167843612 475.64933321681764L1837.696167843612 475.64933321681764L1837.696167843612 445.2892079700158Q1837.696167843612 439.3858502831377 1834.9154356513375 435.8529528257396Q1832.1119105722412 432.32005536834146 1827.5989189815002 430.678967517163Q1823.0859273907593 429.0378796659845 1817.5016701193883 429.0378796659845L1817.5016701193883 429.0378796659845Q1810.1167747890852 429.0378796659845 1802.4127790432751 430.9980679326699Q1794.708783297465 432.9810490861773 1786.8224444570794 436.2632247885342L1786.8224444570794 436.2632247885342L1783.3807185469693 423.6131726023668Q1792.2471515206973 419.8523462767495 1801.4326849099323 417.6414362550229Q1810.6182182991677 415.4077333464744 1819.4846512728957 415.4077333464744L1819.4846512728957 415.4077333464744Q1829.992172097802 415.4077333464744 1837.536617635859 418.87225214340674Q1845.0810631739153 422.31397805351713 1849.0926112545742 429.0378796659845Q1853.1269522220543 435.7617812784519 1853.1269522220543 445.9502016878516L1853.1269522220543 445.9502016878516L1853.1269522220543 474.32734578114605Q1853.1269522220543 478.5896156168457 1854.6084898654797 480.48142522306534Q1856.0672346220824 482.37323482928497 1858.7112094934257 482.37323482928497L1858.7112094934257 482.37323482928497Q1860.1699542500285 482.37323482928497 1861.4919416857003 481.87179131920266Q1862.8139291213718 481.3931406959423 1863.7940232547146 481.05124739361344L1863.7940232547146 481.05124739361344L1867.2357491648247 492.72120544643815Q1865.435111105893 493.8608497875343 1862.0617638562483 494.9321154681647Q1858.7112094934257 496.0033811487951 1854.426146770904 496.0033811487951ZM1805.8545049533852 496.9834752821378L1805.8545049533852 496.9834752821378Q1798.629159830836 496.9834752821378 1792.4067017284508 494.17995020304124Q1786.161450739244 491.39921801076656 1782.469003074092 485.9061322866831Q1778.7765554089408 480.41304656259956 1778.7765554089408 472.36715751446064L1778.7765554089408 472.36715751446064Q1778.7765554089408 464.16171825856827 1783.4490972074348 458.4862894399094Q1788.1444318927513 452.8336535080724 1795.5293272230545 449.96174976851006Q1802.9142225533576 447.08984602894776 1811.2792120170031 447.08984602894776L1811.2792120170031 447.08984602894776Q1820.9661889163206 447.08984602894776 1828.1687411520486 449.3007560506743Q1835.3940862745978 451.5116660724009 1843.12087490723 454.7938417747578L1843.12087490723 454.7938417747578L1843.12087490723 465.30136259966446Q1834.4139921412554 461.5405362740471 1827.2798185659933 460.30972038566324Q1820.1456449907316 459.0789044972794 1814.0599442092778 459.0789044972794L1814.0599442092778 459.0789044972794Q1808.9771304479889 458.896561402704 1804.6236890650014 460.378099046129Q1800.2702476820143 461.85963668955407 1797.4895154897397 464.6403688818287Q1794.708783297465 467.4438939609252 1794.708783297465 471.86571400437833L1794.708783297465 471.86571400437833Q1794.708783297465 475.64933321681764 1796.8285217719038 478.2705152013388Q1798.9710531331646 480.89169718586 1802.5039505905627 482.12251307424384Q1806.0140551611387 483.3533289626277 1809.9572245813317 483.3533289626277L1809.9572245813317 483.3533289626277Q1814.2194944170312 483.3533289626277 1819.6442014806491 481.6438624509834Q1825.068908544267 479.91160305251725 1831.0406448916108 476.3103269346534Q1837.0351741257766 472.68625792996755 1843.12087490723 467.28434375317175L1843.12087490723 467.28434375317175L1842.778981604901 478.43006540909226Q1837.19472433353 484.01432268046347 1831.0406448916108 488.20821385569735Q1824.8865654496915 492.3793121441093 1818.5729358000187 494.68139371312355Q1812.259306150346 496.9834752821378 1805.8545049533852 496.9834752821378Z " fill="#ddc6b6" transform="matrix(0.4689071156421515,0,0,0.46890711564215143,-0.5600506066757567,86.42865099299965)"/></g></svg>